<svg xmlns="http://www.w3.org/2000/svg" width="32" height="40.005"><path data-name="https://www.flaticon.com/free-icon/bitcoin_1435902#term=secure%20payment&amp;page=1&amp;position=85" d="M15.556 39.914l-1.073-.454a23.541 23.541 0 01-10.53-8.8A24.058 24.058 0 010 17.413V6.19a1.171 1.171 0 01.79-1.111L15.635.058a1.126 1.126 0 01.73 0l14.846 5.021A1.17 1.17 0 0132 6.19v11.223a24.058 24.058 0 01-3.953 13.247 23.539 23.539 0 01-10.529 8.8l-1.074.454a1.142 1.142 0 01-.889 0zm1.6-7.358v4.509a21.229 21.229 0 008.97-7.7 21.694 21.694 0 003.565-11.947V7.04L17.156 2.8v4.65a1.155 1.155 0 11-2.31 0V2.8L2.311 7.04v10.378a21.693 21.693 0 003.564 11.947 21.231 21.231 0 008.971 7.7v-4.509a1.155 1.155 0 112.31 0zm-2.31-5.022v-1.338H12.29a1.172 1.172 0 010-2.344h.082v-7.7h-.082a1.172 1.172 0 010-2.344h2.556v-1.339a1.155 1.155 0 112.31 0v1.339h.082a3.57 3.57 0 012.566 1.079 11.1 11.1 0 001.063 7.625 3.681 3.681 0 01-1.063 2.6 3.575 3.575 0 01-2.566 1.079h-.082v1.338a1.155 1.155 0 11-2.31 0zm-.164-3.683h2.556a1.3 1.3 0 00.932-.391 1.347 1.347 0 00.387-.948 1.331 1.331 0 00-1.319-1.338h-2.556zm0-5.017h2.557a1.342 1.342 0 00.932-2.285 1.3 1.3 0 00-.932-.392h-2.557z" fill="#ff5353"/></svg>