<svg xmlns="http://www.w3.org/2000/svg" width="56.002" height="34.002"><path data-name="https://www.flaticon.com/free-icon/delivery-truck_259502#term=delivery&amp;page=1&amp;position=51" d="M38.234 29.436H15.65a5.565 5.565 0 01-10.949 0H1.116A1.128 1.128 0 010 28.297V1.14A1.128 1.128 0 011.116.001h34.356a1.128 1.128 0 011.116 1.139v1.5h9.285a4.621 4.621 0 014.5 3.641l1.846 8.055 3.231 1.916a1.142 1.142 0 01.555.985v11.055a1.128 1.128 0 01-1.115 1.139h-5.7a5.565 5.565 0 01-10.949 0zm2.128-1.368a1.193 1.193 0 01.023.229 1.207 1.207 0 01-.023.229 3.428 3.428 0 100-.457zm-33.541.229a3.356 3.356 0 103.355-3.427 3.4 3.4 0 00-3.356 3.427zm42.363-1.139h4.587V24.03h-3.239a1.128 1.128 0 01-1.115-1.139v-3.487a1.128 1.128 0 011.115-1.139h3.238v-.367l-2.832-1.68h-8.995a1.127 1.127 0 01-1.116-1.139V4.923h-4.24v22.234h1.646a5.565 5.565 0 0110.949 0zm-33.533 0h18.706v-1.807H24.294a1.14 1.14 0 010-2.279h10.062v-1.806H2.231v5.892h2.47a5.565 5.565 0 0110.949 0zm36-5.407h2.122v-1.206h-2.122zM2.234 18.986h32.125V2.279H2.231zm40.828-5.046h6.773L48.2 6.806a2.387 2.387 0 00-2.324-1.882h-2.814zm-23.47 11.411a1.14 1.14 0 010-2.279h.941a1.14 1.14 0 010 2.279z" fill="#ff5353"/></svg>