<svg xmlns="http://www.w3.org/2000/svg" width="37.999" height="41.002"><path data-name="https://www.flaticon.com/free-icon/headphones_126100#term=headphones&amp;page=1&amp;position=9" d="M32.822 15.591v-1.576a14.521 14.521 0 00-3.7-9.88A12.678 12.678 0 0019.65 0h-1.282a12.678 12.678 0 00-9.472 4.135 14.521 14.521 0 00-3.7 9.88v1.576a5.623 5.623 0 00-5.194 5.633v2.464a5.609 5.609 0 005.559 5.642h3.132a1.029 1.029 0 001.019-1.033V16.603a1.029 1.029 0 00-1.019-1.034h-1.46V14.01c0-6.813 4.787-11.947 11.127-11.947h1.282c6.349 0 11.127 5.133 11.127 11.947v1.559h-1.46a1.029 1.029 0 00-1.019 1.034v11.68a1.029 1.029 0 001.019 1.034h1.426c-.416 5.392-4.074 6.641-5.771 6.925a3.587 3.587 0 00-3.4-2.507h-2.546a3.631 3.631 0 000 7.261h2.555a3.591 3.591 0 003.446-2.67 9.534 9.534 0 003.454-1.2c1.842-1.094 4.023-3.325 4.312-7.821a5.614 5.614 0 005.22-5.634v-2.464a5.594 5.594 0 00-5.183-5.616zM7.69 27.254H5.577a3.551 3.551 0 01-3.522-3.575v-2.464a3.551 3.551 0 013.522-3.575H7.69zm13.877 11.68h-2.555a1.559 1.559 0 010-3.118h2.555a1.559 1.559 0 010 3.118zm14.4-15.255a3.551 3.551 0 01-3.522 3.575h-2.113v-9.613h2.113a3.551 3.551 0 013.522 3.575z" fill="#ff5353"/></svg>