<svg xmlns="http://www.w3.org/2000/svg" width="35.005" height="40.993"><path data-name="https://www.flaticon.com/free-icon/money-bag_126157#term=money&amp;page=1&amp;position=27" d="M7.887 40.993a7.924 7.924 0 01-7.888-7.935 24.3 24.3 0 012.016-9.648 29.611 29.611 0 014.406-7.107 33.4 33.4 0 015.566-5.335l-4.66-7.082a1.034 1.034 0 01.119-1.278 6.847 6.847 0 015.1-2.4 14.973 14.973 0 015.066 1.2 1.266 1.266 0 00.482.084A6.175 6.175 0 0020.161.87a8.492 8.492 0 013.288-.868 5.047 5.047 0 013.625 1.636 1.012 1.012 0 01.186 1.209l-4.32 8.063a32.887 32.887 0 015.642 5.395 29.329 29.329 0 014.406 7.107 24.3 24.3 0 012.016 9.648 7.924 7.924 0 01-7.888 7.935zm.05-23.335a23.915 23.915 0 00-5.9 15.4 5.878 5.878 0 005.854 5.889h19.23a5.853 5.853 0 005.837-5.889 23.855 23.855 0 00-5.9-15.4 30.643 30.643 0 00-5.752-5.42h-7.608a31.168 31.168 0 00-5.76 5.42zm1.559-14.2l4.431 6.733h7.079l4.066-7.6a2.68 2.68 0 00-1.635-.562 6.823 6.823 0 00-2.507.716 7.471 7.471 0 01-2.847.776 3.435 3.435 0 01-1.177-.205 13.141 13.141 0 00-4.363-1.083A4.42 4.42 0 009.497 3.46zm7.2 30.9v-1.451h-2a1.023 1.023 0 010-2.046h4.176a1.543 1.543 0 000-3.086h-2.329a3.588 3.588 0 010-7.176h.144v-1.423a1.017 1.017 0 112.033 0v1.423h1.923a1.023 1.023 0 010 2.046h-4.1a1.543 1.543 0 000 3.085h2.329a3.589 3.589 0 01.051 7.177h-.2v1.456a1.017 1.017 0 11-2.033 0z" fill="#ff5353"/></svg>